<?xml version="1.0" standalone="no"?>
<!DOCTYPE svg PUBLIC "-//W3C//DTD SVG 20010904//EN"
 "http://www.w3.org/TR/2001/REC-SVG-20010904/DTD/svg10.dtd">
<svg version="1.0" xmlns="http://www.w3.org/2000/svg"
 width="96.000000pt" height="96.000000pt" viewBox="0 0 96.000000 96.000000"
 preserveAspectRatio="xMidYMid meet">
<metadata>
Created by potrace 1.14, written by Peter Selinger 2001-2017
</metadata>
<g transform="translate(0.000000,96.000000) scale(0.100000,-0.100000)"
fill="#000000" stroke="none">
<path d="M197 902 c-15 -17 -17 -61 -17 -424 0 -380 1 -406 18 -421 16 -15 51
-17 284 -17 244 0 266 1 281 18 15 17 17 61 17 424 0 380 -1 406 -18 421 -16
15 -51 17 -284 17 -244 0 -266 -1 -281 -18z m558 -422 l0 -415 -275 0 -275 0
-3 405 c-1 223 0 411 3 418 3 10 64 12 277 10 l273 -3 0 -415z"/>
<path d="M405 821 c-154 -71 -150 -280 7 -346 47 -19 89 -19 136 0 160 67 160
283 0 350 -49 20 -94 19 -143 -4z m155 -24 c51 -27 90 -90 90 -147 0 -87 -83
-170 -170 -170 -87 0 -170 83 -170 170 0 57 39 120 90 147 55 29 105 29 160 0z"/>
<path d="M436 779 c-25 -20 -27 -26 -22 -73 12 -120 14 -110 -21 -121 -42 -12
-43 -30 -1 -21 60 12 68 31 43 103 -24 70 9 126 64 108 48 -15 43 -128 -6
-150 -27 -12 -31 -28 -5 -23 9 2 24 -4 32 -14 16 -19 80 -36 80 -21 0 5 -15
13 -32 18 -36 11 -34 1 -22 121 5 47 3 53 -22 73 -14 11 -34 21 -44 21 -10 0
-30 -10 -44 -21z"/>
<path d="M400 410 c0 -6 33 -10 80 -10 47 0 80 4 80 10 0 6 -33 10 -80 10 -47
0 -80 -4 -80 -10z"/>
<path d="M320 350 c0 -6 60 -10 160 -10 100 0 160 4 160 10 0 6 -60 10 -160
10 -100 0 -160 -4 -160 -10z"/>
<path d="M296 224 c-9 -8 -16 -24 -16 -34 0 -45 21 -50 200 -50 140 0 171 3
184 16 20 20 20 48 0 68 -23 24 -345 24 -368 0z m324 -14 c0 -6 -54 -10 -143
-10 -97 0 -147 -4 -155 -12 -15 -15 -26 -4 -19 17 5 13 31 15 162 15 97 0 155
-4 155 -10z"/>
<path d="M57 842 c-15 -17 -17 -57 -17 -364 0 -391 -3 -378 78 -378 58 0 53
18 -5 22 l-48 3 0 355 0 355 48 3 c59 4 62 22 4 22 -30 0 -49 -6 -60 -18z"/>
<path d="M810 851 c0 -6 19 -11 43 -13 l42 -3 0 -355 0 -355 -47 -3 c-60 -4
-63 -22 -5 -22 79 0 77 -11 77 382 0 321 -1 346 -18 361 -20 18 -92 24 -92 8z"/>
</g>
</svg>
